# xmcd CD database file
#
# Track frame offsets:
#	150
#	15640
#	34780
#	49135
#	72875
#	97105
#	110675
#	128077
#	147195
#	172707
#	207960
#
# Disc length: 3133 seconds
#
# Revision: 0
# Processed by: cddbd v1.5.1PL0 Copyright (c) Steve Scherf et al.
# Submitted via: CDex 1.50
#
DISCID=950c3b0b
DTITLE=the youth - BORN!
DYEAR=2003
DGENRE=Vocal
TTITLE0=青春時代
TTITLE1=言葉にできない
TTITLE2=なぁ友よ
TTITLE3=ファザー
TTITLE4=泥の道
TTITLE5=黒い世界
TTITLE6=首飾り
TTITLE7=また会おう
TTITLE8=我が子へと
TTITLE9=冬の街
TTITLE10=泥の道 -exclusive-
EXTD=YEAR: 2003
EXTT0=
EXTT1=
EXTT2=
EXTT3=
EXTT4=
EXTT5=
EXTT6=
EXTT7=
EXTT8=
EXTT9=
EXTT10=
PLAYORDER=
